# xmcd
#
# Track frame offsets:
#	150
#	18930
#	38750
#	57507
#	75035
#	93740
#	112222
#	121612
#	141127
#	156772
#	168800
#	186997
#	205730
#
# Disc length: 2995 seconds
#
# Revision: 1
# Processed by: cddbd v1.5PL3 Copyright (c) Steve Scherf et al.
# Submitted via: audiograbber 1.83.01
#
DISCID=a10bb10d
DTITLE=Yavuz Bingöl - Gülen Az Güle Naz
DYEAR=1900
DGENRE=
TTITLE0=Ben bir küçük cezveyim
TTITLE1=Bitlis'te bes minare
TTITLE2=Gitme
TTITLE3=Yesil basli telli turnam
TTITLE4=Nurettin'e agit
TTITLE5=Ham meyvayi kopardilar dalindan
TTITLE6=Eminem Eminem
TTITLE7=Kaçakçi kurban
TTITLE8=Yüregim yanginlarda
TTITLE9=Çanakkale içinde
TTITLE10=Ey sevdigim
TTITLE11=Tutam yar elinden
TTITLE12=Alli gelin
EXTD=
EXTT0=
EXTT1=
EXTT2=
EXTT3=
EXTT4=
EXTT5=
EXTT6=
EXTT7=
EXTT8=
EXTT9=
EXTT10=
EXTT11=
EXTT12=
PLAYORDER=
